<svg xmlns="http://www.w3.org/2000/svg" xmlns:xlink="http://www.w3.org/1999/xlink" zoomAndPan="magnify" preserveAspectRatio="xMidYMid meet" version="1.0" viewBox="48.47 123 278.36 123.84"><defs><g/><clipPath id="9a2cf9ce67"><path d="M 88.199219 123 L 219 123 L 219 208 L 88.199219 208 Z M 88.199219 123 " clip-rule="nonzero"/></clipPath><clipPath id="203a86ef3a"><path d="M 156 129 L 286.949219 129 L 286.949219 214 L 156 214 Z M 156 129 " clip-rule="nonzero"/></clipPath></defs><g clip-path="url(#9a2cf9ce67)"><path fill="#00adef" d="M 159.914062 196.617188 C 160.214844 196.371094 160.503906 196.113281 160.800781 195.863281 L 161.023438 195.671875 L 161.257812 195.464844 L 161.722656 195.050781 C 162.066406 194.746094 162.261719 194.554688 162.5 194.328125 L 162.925781 193.921875 L 163.320312 193.53125 C 163.84375 193.011719 164.347656 192.488281 164.847656 191.964844 C 165.835938 190.90625 166.792969 189.851562 167.6875 188.777344 C 168.578125 187.703125 169.4375 186.628906 170.246094 185.550781 C 171.066406 184.480469 171.84375 183.40625 172.582031 182.332031 C 174.066406 180.191406 175.425781 178.078125 176.6875 176.003906 C 177.964844 173.9375 179.132812 171.90625 180.265625 169.9375 C 182.519531 166 184.570312 162.296875 186.578125 158.878906 C 188.589844 155.46875 190.539062 152.328125 192.535156 149.519531 C 196.492188 143.878906 200.605469 139.503906 204.503906 136.320312 C 205.476562 135.519531 206.421875 134.785156 207.34375 134.128906 C 207.800781 133.792969 208.253906 133.484375 208.691406 133.171875 C 209.128906 132.867188 209.566406 132.589844 209.984375 132.3125 C 210.828125 131.777344 211.621094 131.292969 212.359375 130.855469 C 212.726562 130.628906 213.085938 130.4375 213.429688 130.242188 C 213.769531 130.050781 214.09375 129.875 214.40625 129.710938 C 215.027344 129.371094 215.578125 129.078125 216.058594 128.839844 C 216.539062 128.597656 216.949219 128.382812 217.285156 128.226562 C 217.953125 127.898438 218.296875 127.730469 218.296875 127.730469 C 218.296875 127.730469 217.914062 127.746094 217.171875 127.78125 C 216.800781 127.796875 216.339844 127.824219 215.792969 127.878906 C 215.242188 127.925781 214.605469 127.996094 213.886719 128.085938 C 211.023438 128.476562 206.757812 129.261719 201.597656 131.429688 C 199.027344 132.511719 196.253906 133.949219 193.386719 135.785156 C 190.519531 137.621094 187.609375 139.894531 184.714844 142.519531 C 181.828125 145.15625 178.96875 148.148438 176.191406 151.386719 C 174.789062 153 173.417969 154.6875 172.03125 156.394531 C 170.660156 158.113281 169.277344 159.859375 167.898438 161.628906 C 162.375 168.679688 156.730469 176.042969 149.902344 181.472656 L 149.628906 181.679688 L 149.496094 181.785156 L 149.339844 181.902344 C 149.132812 182.054688 148.925781 182.214844 148.714844 182.367188 C 148.296875 182.667969 147.867188 182.960938 147.4375 183.25 C 146.574219 183.816406 145.6875 184.34375 144.789062 184.835938 C 142.984375 185.820312 141.09375 186.605469 139.15625 187.214844 C 138.1875 187.511719 137.207031 187.761719 136.214844 187.953125 C 135.222656 188.148438 134.226562 188.292969 133.222656 188.375 C 131.214844 188.539062 129.195312 188.476562 127.207031 188.183594 C 125.222656 187.871094 123.269531 187.339844 121.402344 186.558594 C 120.472656 186.167969 119.566406 185.710938 118.679688 185.210938 C 117.800781 184.707031 116.949219 184.140625 116.128906 183.523438 C 115.320312 182.890625 114.53125 182.222656 113.785156 181.5 C 113.417969 181.128906 113.050781 180.757812 112.703125 180.363281 L 112.570312 180.21875 C 112.582031 180.230469 112.457031 180.082031 112.574219 180.230469 L 112.488281 180.125 L 112.140625 179.703125 C 111.996094 179.511719 111.910156 179.414062 111.742188 179.183594 C 110.53125 177.570312 109.53125 175.765625 108.789062 173.804688 C 107.292969 169.890625 106.859375 165.351562 107.539062 160.964844 C 108.207031 156.574219 110.042969 152.378906 112.71875 149.183594 C 115.40625 145.980469 118.898438 143.847656 122.945312 142.957031 C 125.773438 142.324219 128.894531 142.332031 132.113281 142.871094 C 132.203125 143.5 132.324219 144.128906 132.488281 144.757812 C 134.820312 153.792969 144.035156 159.226562 153.074219 156.890625 C 162.109375 154.558594 167.542969 145.34375 165.210938 136.304688 C 162.875 127.269531 153.660156 121.835938 144.621094 124.171875 C 142.324219 124.765625 140.261719 125.804688 138.496094 127.171875 C 137.796875 126.976562 137.09375 126.792969 136.375 126.625 C 134.636719 126.214844 132.847656 125.898438 131.015625 125.699219 C 127.351562 125.292969 123.503906 125.347656 119.664062 126.042969 C 115.824219 126.726562 112.007812 128.074219 108.539062 130.039062 C 105.058594 131.992188 101.949219 134.550781 99.335938 137.464844 C 96.722656 140.382812 94.601562 143.652344 92.984375 147.105469 C 91.363281 150.554688 90.222656 154.179688 89.550781 157.878906 C 88.203125 165.261719 88.746094 172.988281 91.300781 180.175781 C 92.578125 183.765625 94.367188 187.207031 96.628906 190.304688 C 96.886719 190.667969 97.253906 191.144531 97.554688 191.53125 L 97.898438 191.957031 L 98.390625 192.554688 C 98.984375 193.28125 99.609375 193.976562 100.246094 194.65625 C 101.535156 196.015625 102.910156 197.292969 104.367188 198.460938 C 110.191406 203.15625 117.261719 206.140625 124.417969 207.152344 C 126.207031 207.40625 128 207.550781 129.78125 207.589844 C 131.566406 207.617188 133.335938 207.527344 135.082031 207.34375 C 138.578125 206.984375 141.960938 206.183594 145.152344 205.058594 C 148.351562 203.941406 151.34375 202.472656 154.105469 200.785156 C 155.488281 199.941406 156.8125 199.039062 158.066406 198.082031 C 158.695312 197.601562 159.3125 197.117188 159.914062 196.617188 " fill-opacity="1" fill-rule="nonzero"/></g><g clip-path="url(#203a86ef3a)"><path fill="#5ce1e6" d="M 283.710938 156.570312 C 282.433594 152.984375 280.644531 149.542969 278.382812 146.445312 C 278.125 146.082031 277.753906 145.605469 277.453125 145.21875 L 277.109375 144.789062 L 276.617188 144.191406 C 276.027344 143.46875 275.398438 142.773438 274.761719 142.089844 C 273.476562 140.734375 272.101562 139.457031 270.644531 138.289062 C 264.820312 133.589844 257.746094 130.605469 250.59375 129.59375 C 248.804688 129.339844 247.011719 129.195312 245.226562 129.160156 C 243.445312 129.128906 241.675781 129.21875 239.929688 129.402344 C 236.433594 129.761719 233.050781 130.566406 229.855469 131.6875 C 226.660156 132.804688 223.664062 134.273438 220.90625 135.964844 C 219.523438 136.804688 218.199219 137.710938 216.941406 138.667969 C 216.3125 139.148438 215.699219 139.632812 215.097656 140.128906 C 214.796875 140.375 214.503906 140.632812 214.207031 140.882812 L 213.988281 141.074219 L 213.753906 141.28125 L 213.289062 141.699219 C 212.945312 142 212.75 142.195312 212.511719 142.421875 L 212.082031 142.828125 L 211.691406 143.21875 C 211.164062 143.734375 210.664062 144.257812 210.160156 144.785156 C 209.171875 145.839844 208.21875 146.898438 207.324219 147.96875 C 206.433594 149.042969 205.574219 150.121094 204.761719 151.195312 C 203.941406 152.269531 203.164062 153.339844 202.429688 154.414062 C 200.941406 156.554688 199.585938 158.667969 198.320312 160.742188 C 197.046875 162.8125 195.875 164.84375 194.742188 166.808594 C 192.492188 170.746094 190.4375 174.453125 188.433594 177.867188 C 186.421875 181.28125 184.46875 184.417969 182.472656 187.230469 C 178.519531 192.871094 174.402344 197.242188 170.503906 200.429688 C 169.535156 201.226562 168.589844 201.964844 167.664062 202.617188 C 167.210938 202.953125 166.753906 203.265625 166.316406 203.574219 C 165.878906 203.878906 165.445312 204.15625 165.027344 204.4375 C 164.183594 204.96875 163.386719 205.457031 162.648438 205.894531 C 162.28125 206.121094 161.921875 206.308594 161.582031 206.503906 C 161.242188 206.695312 160.914062 206.875 160.601562 207.039062 C 159.984375 207.375 159.433594 207.671875 158.949219 207.90625 C 158.46875 208.152344 158.0625 208.363281 157.722656 208.523438 C 157.058594 208.847656 156.714844 209.015625 156.714844 209.015625 C 156.714844 209.015625 157.097656 209 157.839844 208.96875 C 158.207031 208.953125 158.667969 208.921875 159.21875 208.867188 C 159.769531 208.824219 160.40625 208.75 161.125 208.660156 C 163.984375 208.269531 168.25 207.484375 173.410156 205.316406 C 175.984375 204.238281 178.757812 202.796875 181.625 200.964844 C 184.488281 199.128906 187.402344 196.851562 190.296875 194.226562 C 193.179688 191.589844 196.039062 188.601562 198.820312 185.359375 C 200.21875 183.746094 201.589844 182.058594 202.976562 180.351562 C 204.347656 178.632812 205.730469 176.886719 207.109375 175.121094 C 212.632812 168.070312 218.277344 160.707031 225.109375 155.277344 L 225.378906 155.066406 L 225.515625 154.960938 L 225.671875 154.84375 C 225.878906 154.691406 226.085938 154.53125 226.292969 154.382812 C 226.714844 154.078125 227.140625 153.785156 227.570312 153.5 C 228.4375 152.933594 229.320312 152.402344 230.222656 151.910156 C 232.027344 150.929688 233.917969 150.140625 235.851562 149.535156 C 236.820312 149.234375 237.804688 148.988281 238.796875 148.796875 C 239.785156 148.597656 240.785156 148.453125 241.789062 148.371094 C 243.792969 148.210938 245.8125 148.269531 247.800781 148.566406 C 249.785156 148.875 251.742188 149.40625 253.605469 150.1875 C 254.539062 150.582031 255.441406 151.035156 256.328125 151.535156 C 257.210938 152.042969 258.0625 152.605469 258.882812 153.226562 C 259.691406 153.855469 260.480469 154.523438 261.226562 155.25 C 261.59375 155.617188 261.960938 155.992188 262.308594 156.382812 L 262.4375 156.53125 C 262.429688 156.515625 262.554688 156.667969 262.433594 156.515625 L 262.519531 156.625 L 262.867188 157.046875 C 263.015625 157.234375 263.097656 157.335938 263.269531 157.566406 C 264.476562 159.179688 265.480469 160.980469 266.222656 162.945312 C 267.71875 166.859375 268.152344 171.394531 267.46875 175.78125 C 266.804688 180.171875 264.96875 184.367188 262.292969 187.5625 C 259.605469 190.765625 256.113281 192.898438 252.066406 193.792969 C 249.238281 194.425781 246.113281 194.414062 242.894531 193.875 C 242.804688 193.25 242.683594 192.621094 242.523438 191.992188 C 240.1875 182.957031 230.972656 177.519531 221.9375 179.855469 C 212.902344 182.1875 207.464844 191.40625 209.800781 200.441406 C 212.132812 209.476562 221.351562 214.910156 230.386719 212.578125 C 232.683594 211.984375 234.75 210.945312 236.511719 209.574219 C 237.210938 209.769531 237.917969 209.957031 238.636719 210.121094 C 240.371094 210.53125 242.160156 210.851562 243.996094 211.046875 C 247.65625 211.453125 251.503906 211.402344 255.347656 210.707031 C 259.1875 210.023438 263.003906 208.675781 266.472656 206.707031 C 269.949219 204.753906 273.0625 202.195312 275.675781 199.28125 C 278.285156 196.363281 280.410156 193.09375 282.027344 189.640625 C 283.648438 186.195312 284.789062 182.566406 285.457031 178.871094 C 286.804688 171.484375 286.261719 163.761719 283.710938 156.570312 " fill-opacity="1" fill-rule="nonzero"/></g><g fill="#ffffff" fill-opacity="1"><g transform="translate(47.078204, 246.559467)"><g><path d="M 19.390625 -13 L 15.109375 -13 C 14.941406 -14.101562 14.472656 -14.96875 13.703125 -15.59375 C 12.929688 -16.21875 11.960938 -16.53125 10.796875 -16.53125 C 9.253906 -16.53125 8.015625 -15.960938 7.078125 -14.828125 C 6.140625 -13.691406 5.671875 -12.082031 5.671875 -10 C 5.671875 -7.863281 6.140625 -6.238281 7.078125 -5.125 C 8.023438 -4.019531 9.253906 -3.46875 10.765625 -3.46875 C 11.898438 -3.46875 12.859375 -3.757812 13.640625 -4.34375 C 14.421875 -4.9375 14.910156 -5.769531 15.109375 -6.84375 L 19.390625 -6.8125 C 19.234375 -5.59375 18.796875 -4.441406 18.078125 -3.359375 C 17.359375 -2.273438 16.375 -1.394531 15.125 -0.71875 C 13.882812 -0.0507812 12.410156 0.28125 10.703125 0.28125 C 8.921875 0.28125 7.328125 -0.125 5.921875 -0.9375 C 4.515625 -1.75 3.40625 -2.914062 2.59375 -4.4375 C 1.789062 -5.96875 1.390625 -7.820312 1.390625 -10 C 1.390625 -12.175781 1.796875 -14.03125 2.609375 -15.5625 C 3.429688 -17.09375 4.546875 -18.257812 5.953125 -19.0625 C 7.359375 -19.875 8.941406 -20.28125 10.703125 -20.28125 C 12.242188 -20.28125 13.632812 -19.992188 14.875 -19.421875 C 16.113281 -18.847656 17.128906 -18.019531 17.921875 -16.9375 C 18.710938 -15.851562 19.203125 -14.539062 19.390625 -13 Z M 19.390625 -13 "/></g></g></g><g fill="#ffffff" fill-opacity="1"><g transform="translate(69.160661, 246.559467)"><g><path d="M 1.734375 0 L 1.734375 -20 L 5.96875 -20 L 5.96875 -3.484375 L 14.546875 -3.484375 L 14.546875 0 Z M 1.734375 0 "/></g></g></g><g fill="#ffffff" fill-opacity="1"><g transform="translate(86.16589, 246.559467)"><g><path d="M 20.125 -10 C 20.125 -7.820312 19.707031 -5.96875 18.875 -4.4375 C 18.050781 -2.90625 16.929688 -1.734375 15.515625 -0.921875 C 14.109375 -0.117188 12.519531 0.28125 10.75 0.28125 C 8.976562 0.28125 7.382812 -0.125 5.96875 -0.9375 C 4.550781 -1.75 3.429688 -2.921875 2.609375 -4.453125 C 1.796875 -5.984375 1.390625 -7.832031 1.390625 -10 C 1.390625 -12.175781 1.796875 -14.03125 2.609375 -15.5625 C 3.429688 -17.09375 4.550781 -18.257812 5.96875 -19.0625 C 7.382812 -19.875 8.976562 -20.28125 10.75 -20.28125 C 12.519531 -20.28125 14.109375 -19.875 15.515625 -19.0625 C 16.929688 -18.257812 18.050781 -17.09375 18.875 -15.5625 C 19.707031 -14.03125 20.125 -12.175781 20.125 -10 Z M 15.828125 -10 C 15.828125 -12.125 15.363281 -13.742188 14.4375 -14.859375 C 13.519531 -15.972656 12.289062 -16.53125 10.75 -16.53125 C 9.21875 -16.53125 7.988281 -15.972656 7.0625 -14.859375 C 6.132812 -13.742188 5.671875 -12.125 5.671875 -10 C 5.671875 -7.882812 6.132812 -6.265625 7.0625 -5.140625 C 7.988281 -4.023438 9.21875 -3.46875 10.75 -3.46875 C 12.289062 -3.46875 13.519531 -4.023438 14.4375 -5.140625 C 15.363281 -6.265625 15.828125 -7.882812 15.828125 -10 Z M 15.828125 -10 "/></g></g></g><g fill="#ffffff" fill-opacity="1"><g transform="translate(109.068513, 246.559467)"><g><path d="M 14.125 -20 L 18.328125 -20 L 18.328125 -6.78125 C 18.328125 -5.269531 17.96875 -3.988281 17.25 -2.9375 C 16.539062 -1.882812 15.5625 -1.082031 14.3125 -0.53125 C 13.070312 0.0078125 11.644531 0.28125 10.03125 0.28125 C 8.414062 0.28125 6.984375 0.0078125 5.734375 -0.53125 C 4.484375 -1.082031 3.503906 -1.882812 2.796875 -2.9375 C 2.085938 -3.988281 1.734375 -5.269531 1.734375 -6.78125 L 1.734375 -20 L 5.96875 -20 L 5.96875 -6.921875 C 5.96875 -5.859375 6.351562 -5.019531 7.125 -4.40625 C 7.894531 -3.789062 8.863281 -3.484375 10.03125 -3.484375 C 11.21875 -3.484375 12.195312 -3.789062 12.96875 -4.40625 C 13.738281 -5.019531 14.125 -5.859375 14.125 -6.921875 Z M 14.125 -20 "/></g></g></g><g fill="#ffffff" fill-opacity="1"><g transform="translate(130.526084, 246.559467)"><g><path d="M 8.828125 0 L 1.734375 0 L 1.734375 -20 L 8.890625 -20 C 10.898438 -20 12.628906 -19.597656 14.078125 -18.796875 C 15.535156 -18.003906 16.65625 -16.863281 17.4375 -15.375 C 18.21875 -13.882812 18.609375 -12.097656 18.609375 -10.015625 C 18.609375 -7.929688 18.21875 -6.140625 17.4375 -4.640625 C 16.65625 -3.148438 15.53125 -2.003906 14.0625 -1.203125 C 12.601562 -0.398438 10.859375 0 8.828125 0 Z M 5.96875 -3.625 L 8.65625 -3.625 C 10.53125 -3.625 11.953125 -4.128906 12.921875 -5.140625 C 13.898438 -6.160156 14.390625 -7.785156 14.390625 -10.015625 C 14.390625 -12.234375 13.898438 -13.847656 12.921875 -14.859375 C 11.953125 -15.867188 10.53125 -16.375 8.65625 -16.375 L 5.96875 -16.375 Z M 5.96875 -3.625 "/></g></g></g><g fill="#ffffff" fill-opacity="1"><g transform="translate(151.925075, 246.559467)"><g/></g></g><g fill="#ffffff" fill-opacity="1"><g transform="translate(159.703409, 246.559467)"><g><path d="M 19.390625 -13 L 15.109375 -13 C 14.941406 -14.101562 14.472656 -14.96875 13.703125 -15.59375 C 12.929688 -16.21875 11.960938 -16.53125 10.796875 -16.53125 C 9.253906 -16.53125 8.015625 -15.960938 7.078125 -14.828125 C 6.140625 -13.691406 5.671875 -12.082031 5.671875 -10 C 5.671875 -7.863281 6.140625 -6.238281 7.078125 -5.125 C 8.023438 -4.019531 9.253906 -3.46875 10.765625 -3.46875 C 11.898438 -3.46875 12.859375 -3.757812 13.640625 -4.34375 C 14.421875 -4.9375 14.910156 -5.769531 15.109375 -6.84375 L 19.390625 -6.8125 C 19.234375 -5.59375 18.796875 -4.441406 18.078125 -3.359375 C 17.359375 -2.273438 16.375 -1.394531 15.125 -0.71875 C 13.882812 -0.0507812 12.410156 0.28125 10.703125 0.28125 C 8.921875 0.28125 7.328125 -0.125 5.921875 -0.9375 C 4.515625 -1.75 3.40625 -2.914062 2.59375 -4.4375 C 1.789062 -5.96875 1.390625 -7.820312 1.390625 -10 C 1.390625 -12.175781 1.796875 -14.03125 2.609375 -15.5625 C 3.429688 -17.09375 4.546875 -18.257812 5.953125 -19.0625 C 7.359375 -19.875 8.941406 -20.28125 10.703125 -20.28125 C 12.242188 -20.28125 13.632812 -19.992188 14.875 -19.421875 C 16.113281 -18.847656 17.128906 -18.019531 17.921875 -16.9375 C 18.710938 -15.851562 19.203125 -14.539062 19.390625 -13 Z M 19.390625 -13 "/></g></g></g><g fill="#ffffff" fill-opacity="1"><g transform="translate(181.785869, 246.559467)"><g><path d="M 20.125 -10 C 20.125 -7.820312 19.707031 -5.96875 18.875 -4.4375 C 18.050781 -2.90625 16.929688 -1.734375 15.515625 -0.921875 C 14.109375 -0.117188 12.519531 0.28125 10.75 0.28125 C 8.976562 0.28125 7.382812 -0.125 5.96875 -0.9375 C 4.550781 -1.75 3.429688 -2.921875 2.609375 -4.453125 C 1.796875 -5.984375 1.390625 -7.832031 1.390625 -10 C 1.390625 -12.175781 1.796875 -14.03125 2.609375 -15.5625 C 3.429688 -17.09375 4.550781 -18.257812 5.96875 -19.0625 C 7.382812 -19.875 8.976562 -20.28125 10.75 -20.28125 C 12.519531 -20.28125 14.109375 -19.875 15.515625 -19.0625 C 16.929688 -18.257812 18.050781 -17.09375 18.875 -15.5625 C 19.707031 -14.03125 20.125 -12.175781 20.125 -10 Z M 15.828125 -10 C 15.828125 -12.125 15.363281 -13.742188 14.4375 -14.859375 C 13.519531 -15.972656 12.289062 -16.53125 10.75 -16.53125 C 9.21875 -16.53125 7.988281 -15.972656 7.0625 -14.859375 C 6.132812 -13.742188 5.671875 -12.125 5.671875 -10 C 5.671875 -7.882812 6.132812 -6.265625 7.0625 -5.140625 C 7.988281 -4.023438 9.21875 -3.46875 10.75 -3.46875 C 12.289062 -3.46875 13.519531 -4.023438 14.4375 -5.140625 C 15.363281 -6.265625 15.828125 -7.882812 15.828125 -10 Z M 15.828125 -10 "/></g></g></g><g fill="#ffffff" fill-opacity="1"><g transform="translate(204.6885, 246.559467)"><g><path d="M 18.46875 -20 L 18.46875 0 L 14.8125 0 L 6.109375 -12.59375 L 5.96875 -12.59375 L 5.96875 0 L 1.734375 0 L 1.734375 -20 L 5.453125 -20 L 14.078125 -7.421875 L 14.265625 -7.421875 L 14.265625 -20 Z M 18.46875 -20 "/></g></g></g><g fill="#ffffff" fill-opacity="1"><g transform="translate(226.302297, 246.559467)"><g><path d="M 0.984375 -16.515625 L 0.984375 -20 L 17.40625 -20 L 17.40625 -16.515625 L 11.28125 -16.515625 L 11.28125 0 L 7.09375 0 L 7.09375 -16.515625 Z M 0.984375 -16.515625 "/></g></g></g><g fill="#ffffff" fill-opacity="1"><g transform="translate(246.080475, 246.559467)"><g><path d="M 5.1875 0 L 0.65625 0 L 7.5625 -20 L 13.015625 -20 L 19.90625 0 L 15.375 0 L 13.890625 -4.5625 L 6.671875 -4.5625 Z M 7.75 -7.859375 L 12.828125 -7.859375 L 10.359375 -15.4375 L 10.203125 -15.4375 Z M 7.75 -7.859375 "/></g></g></g><g fill="#ffffff" fill-opacity="1"><g transform="translate(268.045777, 246.559467)"><g><path d="M 19.390625 -13 L 15.109375 -13 C 14.941406 -14.101562 14.472656 -14.96875 13.703125 -15.59375 C 12.929688 -16.21875 11.960938 -16.53125 10.796875 -16.53125 C 9.253906 -16.53125 8.015625 -15.960938 7.078125 -14.828125 C 6.140625 -13.691406 5.671875 -12.082031 5.671875 -10 C 5.671875 -7.863281 6.140625 -6.238281 7.078125 -5.125 C 8.023438 -4.019531 9.253906 -3.46875 10.765625 -3.46875 C 11.898438 -3.46875 12.859375 -3.757812 13.640625 -4.34375 C 14.421875 -4.9375 14.910156 -5.769531 15.109375 -6.84375 L 19.390625 -6.8125 C 19.234375 -5.59375 18.796875 -4.441406 18.078125 -3.359375 C 17.359375 -2.273438 16.375 -1.394531 15.125 -0.71875 C 13.882812 -0.0507812 12.410156 0.28125 10.703125 0.28125 C 8.921875 0.28125 7.328125 -0.125 5.921875 -0.9375 C 4.515625 -1.75 3.40625 -2.914062 2.59375 -4.4375 C 1.789062 -5.96875 1.390625 -7.820312 1.390625 -10 C 1.390625 -12.175781 1.796875 -14.03125 2.609375 -15.5625 C 3.429688 -17.09375 4.546875 -18.257812 5.953125 -19.0625 C 7.359375 -19.875 8.941406 -20.28125 10.703125 -20.28125 C 12.242188 -20.28125 13.632812 -19.992188 14.875 -19.421875 C 16.113281 -18.847656 17.128906 -18.019531 17.921875 -16.9375 C 18.710938 -15.851562 19.203125 -14.539062 19.390625 -13 Z M 19.390625 -13 "/></g></g></g><g fill="#ffffff" fill-opacity="1"><g transform="translate(290.128237, 246.559467)"><g><path d="M 0.984375 -16.515625 L 0.984375 -20 L 17.40625 -20 L 17.40625 -16.515625 L 11.28125 -16.515625 L 11.28125 0 L 7.09375 0 L 7.09375 -16.515625 Z M 0.984375 -16.515625 "/></g></g></g><g fill="#ffffff" fill-opacity="1"><g transform="translate(309.906402, 246.559467)"><g><path d="M 12.59375 -14.25 C 12.507812 -15.039062 12.171875 -15.648438 11.578125 -16.078125 C 10.984375 -16.515625 10.179688 -16.734375 9.171875 -16.734375 C 8.140625 -16.734375 7.34375 -16.519531 6.78125 -16.09375 C 6.226562 -15.675781 5.953125 -15.144531 5.953125 -14.5 C 5.941406 -13.78125 6.25 -13.238281 6.875 -12.875 C 7.507812 -12.507812 8.257812 -12.222656 9.125 -12.015625 L 10.921875 -11.59375 C 12.078125 -11.332031 13.101562 -10.953125 14 -10.453125 C 14.90625 -9.960938 15.617188 -9.328125 16.140625 -8.546875 C 16.660156 -7.773438 16.921875 -6.832031 16.921875 -5.71875 C 16.910156 -3.882812 16.222656 -2.425781 14.859375 -1.34375 C 13.492188 -0.257812 11.59375 0.28125 9.15625 0.28125 C 6.726562 0.28125 4.789062 -0.269531 3.34375 -1.375 C 1.894531 -2.476562 1.144531 -4.113281 1.09375 -6.28125 L 5.1875 -6.28125 C 5.257812 -5.28125 5.65625 -4.523438 6.375 -4.015625 C 7.09375 -3.515625 8.003906 -3.265625 9.109375 -3.265625 C 10.179688 -3.265625 11.035156 -3.488281 11.671875 -3.9375 C 12.316406 -4.394531 12.640625 -4.988281 12.640625 -5.71875 C 12.640625 -6.394531 12.34375 -6.914062 11.75 -7.28125 C 11.164062 -7.644531 10.332031 -7.957031 9.25 -8.21875 L 7.078125 -8.765625 C 5.390625 -9.171875 4.054688 -9.8125 3.078125 -10.6875 C 2.097656 -11.570312 1.613281 -12.75 1.625 -14.21875 C 1.613281 -15.425781 1.9375 -16.484375 2.59375 -17.390625 C 3.25 -18.304688 4.148438 -19.015625 5.296875 -19.515625 C 6.441406 -20.023438 7.742188 -20.28125 9.203125 -20.28125 C 10.679688 -20.28125 11.972656 -20.023438 13.078125 -19.515625 C 14.191406 -19.003906 15.054688 -18.296875 15.671875 -17.390625 C 16.296875 -16.484375 16.617188 -15.4375 16.640625 -14.25 Z M 12.59375 -14.25 "/></g></g></g></svg>