<?xml version="1.0" standalone="no"?>
<!DOCTYPE svg PUBLIC "-//W3C//DTD SVG 20010904//EN"
 "http://www.w3.org/TR/2001/REC-SVG-20010904/DTD/svg10.dtd">
<svg version="1.0" xmlns="http://www.w3.org/2000/svg"
 width="374.000000pt" height="374.000000pt" viewBox="0 0 374.000000 374.000000"
 preserveAspectRatio="xMidYMid meet">
<metadata>
Created by potrace 1.14, written by Peter Selinger 2001-2017
</metadata>
<g transform="translate(0.000000,374.000000) scale(0.100000,-0.100000)"
fill="#000000" stroke="none">
<path d="M1069 2701 c-20 -4 -56 -19 -80 -32 -42 -24 -46 -25 -99 -12 -113 27
-281 20 -390 -17 -300 -101 -495 -404 -485 -751 7 -213 85 -390 239 -541 38
-38 72 -68 77 -68 4 0 14 -7 22 -15 23 -23 145 -81 222 -105 91 -30 297 -37
395 -15 291 68 508 253 726 620 32 55 64 109 71 120 7 11 16 29 22 41 22 48
151 255 204 326 106 143 279 293 410 354 68 32 46 35 -93 9 -112 -20 -258 -87
-377 -171 -73 -52 -218 -193 -289 -279 -27 -33 -51 -62 -54 -65 -3 -3 -57 -70
-121 -150 -194 -243 -289 -335 -414 -398 -101 -51 -168 -65 -302 -60 -10 0
-38 6 -63 13 -217 61 -344 243 -327 465 16 211 162 373 343 380 101 5 124 1
124 -18 0 -34 60 -140 98 -173 98 -87 233 -108 350 -55 157 72 227 255 159
416 -24 56 -93 127 -152 156 -59 28 -150 39 -216 25z"/>
<path d="M2849 2600 c-98 -12 -257 -69 -344 -123 -150 -94 -301 -259 -425
-466 -28 -47 -56 -93 -61 -101 -5 -8 -47 -82 -95 -164 -199 -343 -328 -484
-559 -608 l-70 -37 60 6 c101 9 205 40 310 93 193 96 319 213 582 542 281 351
419 463 608 494 103 17 209 2 300 -42 96 -48 199 -171 221 -266 13 -56 15
-168 4 -221 -16 -80 -73 -188 -121 -232 -71 -64 -140 -89 -244 -90 l-89 0 -21
60 c-75 209 -337 281 -504 138 -75 -63 -111 -139 -113 -234 -5 -239 237 -393
455 -291 55 25 71 29 104 22 250 -55 468 -2 641 155 124 113 219 292 240 455
13 102 5 252 -17 333 -105 382 -465 624 -862 577z"/>
</g>
</svg>
